<?xml version="1.0" encoding="UTF-8"?>
<svg width="638px" height="171px" viewBox="0 0 638 171" version="1.1" xmlns="http://www.w3.org/2000/svg" xmlns:xlink="http://www.w3.org/1999/xlink">
    <title>文案</title>
    <defs>
        <linearGradient x1="50%" y1="100%" x2="50%" y2="3.061617e-15%" id="linearGradient-1">
            <stop stop-color="#29404C" offset="0%"></stop>
            <stop stop-color="#1F2229" offset="100%"></stop>
        </linearGradient>
        <path d="M49.708,70.928 L50.388,64.4 L7.82,64.4 L12.716,17.344 L54.672,17.344 L55.352,10.816 L6.664,10.816 L0.34,70.928 L49.708,70.928 Z M16.456,61.816 L30.532,48.556 L41.752,61.816 L48.008,61.816 L36.04,43.932 L50.048,43.932 L50.728,37.472 L35.564,37.472 L36.38,29.924 L49.912,29.924 L50.592,23.464 L24.208,23.464 L26.112,19.588 L19.244,19.588 L13.396,35.364 L18.428,35.364 L21.08,29.924 L29.58,29.924 L28.764,37.472 L13.804,37.472 L13.124,43.932 L25.976,43.932 L10.2,61.816 L16.456,61.816 Z M65.484,72.22 L70.244,26.456 L67.252,26.456 L74.664,9.048 L67.524,9.048 L59.5,31.964 L63.512,31.964 L59.296,72.22 L65.484,72.22 Z M95.948,64.672 L96.696,58.144 L107.916,58.144 L108.392,52.84 L97.172,52.84 L97.784,47.4 L107.78,47.4 L108.392,42.164 L98.26,42.164 L98.736,37.608 L108.8,37.608 L109.82,27.68 L111.656,27.68 L112.268,22.24 L110.432,22.24 L111.384,12.788 L101.388,12.788 L101.796,9.048 L95.54,9.048 L95.2,12.788 L88.944,12.788 L88.468,17.956 L94.656,17.956 L94.248,22.24 L85.884,22.24 L85.34,27.68 L93.704,27.68 L93.16,32.508 L86.632,32.508 L86.088,37.608 L92.548,37.608 L92.072,42.164 L85.34,42.164 L84.728,47.4 L91.528,47.4 L90.984,52.84 L82.552,52.84 L81.94,58.144 L90.44,58.144 L89.692,64.672 L95.948,64.672 Z M70.856,72.22 L74.596,63.924 L76.296,72.22 L105.672,72.22 L107.984,66.1 L79.492,66.1 L77.928,56.444 L83.436,44.068 L84.184,37.132 L84.864,30.944 L79.492,30.944 L85.884,18.228 L86.496,12.04 L74.528,12.04 L73.916,18.16 L79.628,18.16 L70.584,37.132 L78.268,37.132 L77.52,44.068 L76.364,46.992 L75.548,41.688 L69.972,41.688 L72.896,55.968 L66.64,72.22 L70.856,72.22 Z M104.924,22.24 L100.436,22.24 L100.776,17.956 L105.332,17.956 L104.924,22.24 Z M103.836,32.508 L99.348,32.508 L99.824,27.68 L104.312,27.68 L103.836,32.508 Z M127.16,25.844 L127.704,20.064 L162.452,20.064 L161.84,25.844 L169.048,25.844 L170.34,13.332 L149.532,13.332 L149.94,9.252 L142.664,9.252 L142.188,13.332 L121.312,13.332 L119.952,25.844 L127.16,25.844 Z M165.648,70.656 L166.328,63.924 L144.228,63.924 L145.656,50.596 L164.56,50.596 L165.24,43.864 L146.336,43.864 L147.22,35.364 L167.484,35.364 L168.096,28.632 L120.224,28.632 L119.476,35.364 L140.08,35.364 L139.264,43.864 L119.952,43.864 L119.408,50.596 L138.516,50.596 L137.088,63.924 L114.716,63.924 L113.968,70.656 L165.648,70.656 Z M160.548,62.156 L159.324,52.976 L151.096,52.976 L154.428,62.156 L160.548,62.156 Z M201.756,72.152 L212.092,23.668 L220.048,23.668 L215.628,65.692 L208.556,65.692 L210.052,72.152 L221.612,72.152 L227.324,17.344 L213.452,17.344 L215.22,9.048 L208.828,9.048 L207.196,17.344 L202.164,17.344 L201.552,23.668 L205.972,23.668 L196.588,72.152 L201.756,72.152 Z M171.836,68.344 L197.064,65.828 L197.676,59.504 L195.5,59.708 L200.6,11.088 L180.132,11.088 L174.828,61.68 L172.516,61.952 L171.836,68.344 Z M192.712,27.476 L184.552,27.476 L185.572,17.616 L193.732,17.616 L192.712,27.476 Z M191.012,43.796 L182.852,43.796 L183.872,34.004 L192.032,34.004 L191.012,43.796 Z M181.016,61.136 L182.172,50.324 L190.332,50.324 L189.244,60.32 L181.016,61.136 Z M236.776,72.084 L252.688,24.28 L276.148,24.28 L271.796,65.488 L261.392,65.488 L262.82,72.084 L278.324,72.084 L284.104,17.412 L255,17.412 L257.788,9.048 L249.9,9.048 L247.316,17.412 L236.164,17.412 L235.416,24.28 L245.208,24.28 L230.452,72.084 L236.776,72.084 Z M342.584,36.316 L343.332,29.584 L324.904,9.184 L314.432,9.184 L291.72,29.584 L290.972,36.316 L319.056,14.624 L342.584,36.316 Z M338.3,71.064 L338.912,64.264 L319.26,64.264 L321.096,47.128 L337.348,47.128 L338.096,40.396 L321.844,40.396 L323.204,26.388 L316.336,26.388 L312.392,64.264 L302.192,64.264 L304.98,37.676 L298.18,37.676 L295.392,64.264 L288.66,64.264 L287.98,71.064 L338.3,71.064 Z M396.644,70.656 L397.392,63.72 L382.84,63.72 L388.552,9.252 L381.684,9.252 L375.904,63.72 L367.268,63.72 L373.048,9.252 L366.112,9.252 L360.332,63.72 L345.78,63.72 L345.032,70.656 L396.644,70.656 Z M357.544,53.18 L357.408,19.044 L350.472,19.044 L352.512,53.18 L357.544,53.18 Z M392.904,53.18 L402.084,19.044 L395.08,19.044 L387.94,53.18 L392.904,53.18 Z" id="path-2"></path>
        <linearGradient x1="50%" y1="100%" x2="50%" y2="3.061617e-15%" id="linearGradient-3">
            <stop stop-color="#29404C" offset="0%"></stop>
            <stop stop-color="#1F2229" offset="100%"></stop>
        </linearGradient>
        <path d="M21.284,159.408 L30.396,138.532 L38.76,138.532 L36.652,159.408 L43.18,159.408 L45.356,138.532 L52.7,138.532 L53.244,132.208 L46.036,132.208 L47.328,119.696 L53.244,119.696 L53.924,113.304 L48.008,113.304 L48.688,107.048 L42.228,107.048 L41.48,113.304 L33.048,113.304 L33.66,107.048 L27.132,107.048 L26.52,113.304 L20.264,113.304 L19.516,119.696 L25.772,119.696 L24.48,132.208 L17,132.208 L16.32,138.532 L23.392,138.532 L16.32,159.408 L21.284,159.408 Z M16.592,121.532 L14.416,108.272 L6.596,108.272 L11.424,121.532 L16.592,121.532 Z M39.508,132.208 L31.076,132.208 L32.368,119.696 L40.732,119.696 L39.508,132.208 Z M3.4,170.016 L7.888,163.556 L14.348,168.724 L48.416,168.724 L50.728,162.06 L16.184,162.06 L11.424,158.456 L14.688,126.7 L2.924,126.7 L2.176,133.296 L7.276,133.296 L4.556,158.456 L-1.768,170.016 L3.4,170.016 Z M62.424,170.152 L87.584,124.456 L100.912,170.152 L107.44,170.152 L91.868,107.116 L82.552,107.116 L87.04,122.416 L79.764,122.416 L55.896,170.152 L62.424,170.152 Z M165.58,168.928 L166.192,162.264 L157.896,162.264 L164.968,124.388 L133.212,124.388 L135.184,115.276 L169.728,115.276 L170.408,108.68 L121.72,108.68 L120.972,115.276 L128.384,115.276 L120.224,153.152 L152.728,153.152 L151.096,162.264 L114.648,162.264 L113.968,168.928 L165.58,168.928 Z M153.952,146.556 L128.52,146.556 L131.852,130.984 L156.74,130.984 L153.952,146.556 Z M198.9,170.152 L210.256,149.684 L217.464,170.152 L223.108,170.152 L214.88,140.64 L225.692,140.64 L226.44,134.248 L215.22,134.248 L216.512,121.056 L226.644,121.056 L227.392,114.664 L222.7,114.664 L226.44,106.98 L219.164,106.98 L217.124,114.664 L210.936,114.664 L210.392,106.98 L203.116,106.98 L205.292,114.664 L200.668,114.664 L199.92,121.056 L209.984,121.056 L208.624,134.248 L197.472,134.248 L196.724,140.64 L207.672,140.64 L193.324,170.152 L198.9,170.152 Z M191.488,170.016 L192.78,157.912 L196.316,157.232 L196.928,150.84 L193.392,151.52 L197.268,114.8 L199.648,114.8 L200.396,108.748 L178.16,108.748 L177.548,114.8 L179.452,114.8 L175.236,155.26 L173.196,155.668 L172.516,162.196 L186.932,159.204 L185.708,170.016 L191.488,170.016 Z M190.672,123.3 L184.416,123.3 L185.3,114.8 L191.42,114.8 L190.672,123.3 Z M189.04,137.784 L182.852,137.784 L183.804,129.08 L189.924,129.08 L189.04,137.784 Z M181.152,153.968 L182.308,143.632 L188.496,143.632 L187.476,152.744 L181.152,153.968 Z M237.116,169.948 L242.76,115.412 L278.868,115.412 L273.904,163.488 L268.668,163.488 L269.688,169.948 L279.752,169.948 L286.144,108.68 L236.912,108.68 L230.52,169.948 L237.116,169.948 Z M244.596,161.312 L248.744,149.616 L250.512,161.312 L255.272,161.312 L252.552,139.008 L259.76,118.88 L253.912,118.88 L251.124,127.244 L250.104,118.88 L244.188,118.88 L247.18,139.008 L239.768,161.312 L244.596,161.312 Z M261.528,161.312 L265.676,149.684 L267.444,161.312 L272.34,161.312 L269.552,138.94 L276.76,118.88 L270.844,118.88 L268.056,127.176 L267.036,118.88 L261.12,118.88 L264.112,139.008 L256.7,161.312 L261.528,161.312 Z M295.12,137.376 L301.104,125.952 L302.872,125.952 L301.716,137.376 L308.108,137.376 L309.264,125.952 L310.896,125.952 L314.636,137.376 L319.056,137.376 L316.608,125.952 L319.396,125.952 L320.144,119.288 L310.012,119.288 L311.236,107.048 L304.844,107.048 L303.62,119.288 L292.944,119.288 L292.264,125.952 L295.528,125.952 L290.7,137.376 L295.12,137.376 Z M319.872,170.22 L328.44,152.948 L333.268,170.22 L338.708,170.22 L332.928,143.836 L340.612,128.332 L340.952,125.612 L341.428,120.92 L343.944,120.92 L344.624,114.256 L330.684,114.256 L334.22,107.048 L326.604,107.048 L318.648,128.332 L321.572,128.332 L325.992,144.312 L314.092,170.22 L319.872,170.22 Z M301.376,117.452 L299.948,108 L294.032,108 L297.024,117.452 L301.376,117.452 Z M316.268,117.452 L321.3,108 L315.248,108 L311.984,117.452 L316.268,117.452 Z M330.752,133.976 L329.12,126.496 L324.564,126.496 L327.352,120.92 L335.104,120.92 L334.628,125.612 L330.752,133.976 Z M295.256,170.22 L301.512,165.12 L306.612,170.22 L313.82,170.22 L306.272,161.244 L313.344,155.532 L313.82,151.928 L314.16,148.46 L316.948,148.46 L317.628,141.932 L314.84,141.932 L315.18,138.736 L308.72,138.736 L308.38,141.932 L300.628,141.932 L301.444,138.736 L295.052,138.736 L294.304,141.932 L290.156,141.932 L289.408,148.46 L292.74,148.46 L291.176,154.852 L297.432,161.108 L287.232,170.22 L295.256,170.22 Z M302.464,156.688 L298.248,151.656 L299.064,148.46 L307.7,148.46 L307.36,151.928 L307.224,152.404 L302.464,156.688 Z M357.748,123.776 L358.292,118.608 L393.788,118.608 L393.244,123.776 L400.112,123.776 L401.336,111.944 L380.46,111.944 L380.936,107.048 L373.524,107.048 L373.116,111.944 L352.172,111.944 L350.812,123.776 L357.748,123.776 Z M374.68,170.22 L376.788,149.548 L398.616,149.548 L399.228,142.884 L377.536,142.884 L377.672,142.272 L395.488,132.344 L396.168,125.68 L354.892,125.68 L354.144,132.344 L383.86,132.344 L370.736,139.552 L370.328,142.884 L347.684,142.884 L347.072,149.548 L369.648,149.548 L368.22,163.556 L361.556,163.556 L362.712,170.22 L374.68,170.22 Z M415.344,170.084 L420.172,124.388 L416.024,124.388 L428.196,107.116 L419.9,107.116 L406.232,130.032 L412.08,130.032 L412.76,129.08 L408.476,170.084 L415.344,170.084 Z M451.588,169.268 L454.988,162.4 L438.26,162.4 L440.98,135.948 L459.476,113.848 L451.112,113.848 L442.068,125.34 L443.972,107.116 L437.036,107.116 L434.044,135.608 L420.648,152.676 L427.04,152.676 L433.024,145.536 L430.508,169.268 L451.588,169.268 Z M492.524,117.86 L493.272,111.264 L484.16,111.264 L484.568,107.116 L477.36,107.116 L476.952,111.264 L467.364,111.264 L466.684,117.86 L492.524,117.86 Z M493.068,170.152 L499.052,141.048 L499.868,132.888 L505.24,132.888 L501.364,170.152 L507.756,170.152 L511.7,132.888 L515.984,132.888 L516.732,126.02 L500.616,126.02 L501.636,116.5 L516.868,114.936 L517.548,108.272 L502.316,109.768 L495.924,109.768 L492.796,139.552 L488.104,170.152 L493.068,170.152 Z M477.836,170.152 L480.42,145.74 L489.396,145.74 L490.076,139.144 L481.1,139.144 L481.644,133.976 L491.504,133.976 L492.252,127.38 L487.084,127.38 L491.3,119.832 L484.908,119.832 L481.848,127.38 L475.388,127.38 L474.028,119.832 L467.568,119.832 L470.22,127.38 L464.984,127.38 L464.304,133.976 L475.388,133.976 L474.844,139.144 L464.712,139.144 L464.032,145.74 L474.096,145.74 L472.26,163.692 L467.908,163.692 L468.928,170.152 L477.836,170.152 Z M464.372,170.152 L470.968,149.14 L465.324,149.14 L460.292,170.152 L464.372,170.152 Z M486.948,165.256 L487.696,149.14 L481.984,149.14 L482.936,165.256 L486.948,165.256 Z M564.808,170.084 L569.704,122.688 L574.804,122.688 L575.552,116.16 L570.452,116.16 L571.336,107.116 L564.672,107.116 L563.856,116.16 L547.264,116.16 L546.516,122.688 L563.108,122.688 L558.756,163.556 L552.364,163.556 L553.724,170.084 L564.808,170.084 Z M539.784,165.596 L545.496,110.788 L525.708,110.788 L519.86,165.596 L539.784,165.596 Z M536.928,133.772 L529.312,133.772 L531.012,117.112 L538.628,117.112 L536.928,133.772 Z M555.968,152.268 L554.336,128.74 L547.196,128.74 L551.14,152.268 L555.968,152.268 Z M534.276,159.272 L526.66,159.272 L528.768,139.688 L536.316,139.688 L534.276,159.272 Z M588.744,170.22 L593.504,124.456 L588.812,124.456 L600.372,107.048 L592.892,107.048 L579.7,129.964 L585.14,129.964 L586.296,128.196 L581.944,170.22 L588.744,170.22 Z M625.26,170.22 L628.252,163.352 L618.596,163.352 L616.76,128.468 L631.448,127.72 L632.128,120.988 L616.42,121.736 L615.672,107.048 L608.6,107.048 L609.416,122.076 L596.632,122.688 L595.884,129.488 L609.824,128.808 L612.068,170.22 L625.26,170.22 Z M629,119.084 L628.116,109.224 L620.908,109.224 L623.9,119.084 L629,119.084 Z" id="path-4"></path>
    </defs>
    <g id="页面-1" stroke="none" stroke-width="1" fill="none" fill-rule="evenodd">
        <g id="招商网站" transform="translate(-357.000000, -173.000000)" fill-rule="nonzero">
            <g id="banner" transform="translate(-112.000000, -140.000000)">
                <g id="文案" transform="translate(471.000000, 313.000000)">
                    <g id="医健宝助力企业">
                        <use fill="#FFFFFF" xlink:href="#path-2"></use>
                        <use fill="url(#linearGradient-1)" xlink:href="#path-2"></use>
                    </g>
                    <g id="进入互联网数字化新时代">
                        <use fill="#FFFFFF" xlink:href="#path-4"></use>
                        <use fill="url(#linearGradient-3)" xlink:href="#path-4"></use>
                    </g>
                </g>
            </g>
        </g>
    </g>
</svg>