<?xml version="1.0" encoding="UTF-8"?>
<svg width="979px" height="65px" viewBox="0 0 979 65" version="1.1" xmlns="http://www.w3.org/2000/svg" xmlns:xlink="http://www.w3.org/1999/xlink">
    <title>欢迎加入医城汇大健康企业合伙人平台</title>
    <g id="页面-1" stroke="none" stroke-width="1" fill="none" fill-rule="evenodd">
        <g id="医城汇网站" transform="translate(-467.000000, -198.000000)" fill="#FFFFFF" fill-rule="nonzero">
            <g id="编组-2" transform="translate(382.000000, 182.000000)">
                <path d="M115.628,37.74 L119.572,28.22 L135.144,28.22 L132.288,37.74 L137.32,37.74 L141.264,28.22 L141.944,21.556 L122.36,21.556 L124.604,16.116 L117.396,16.116 L110.664,37.74 L115.628,37.74 Z M90.196,79.152 L96.588,63.648 L99.512,79.152 L104.612,79.152 L100.668,53.856 L109.304,32.98 L109.508,31.076 L109.848,27.88 L110.528,21.216 L92.304,21.216 L91.624,27.88 L103.32,27.88 L102.98,31.076 L98.832,42.228 L97.404,33.184 L90.876,33.184 L94.684,53.38 L85.096,79.152 L90.196,79.152 Z M111.48,79.152 L122.972,53.924 L130.996,79.152 L136.708,79.152 L127.188,44.608 L128.344,33.524 L121.816,33.524 L120.66,44.676 L105.768,79.152 L111.48,79.152 Z M160.712,63.376 L174.992,58.956 L175.536,53.108 L167.988,55.216 L171.184,24.752 L179.004,22.712 L179.752,16.252 L171.864,18.156 L165.472,18.156 L160.712,63.376 Z M161.324,30.464 L159.216,17.204 L151.328,17.204 L156.224,30.464 L161.324,30.464 Z M182.132,68.476 L186.756,24.616 L192.876,24.616 L189.68,55.08 L186.144,55.08 L187.028,61.744 L194.848,61.744 L199.404,17.952 L181.112,17.952 L175.876,68.476 L182.132,68.476 Z M148.132,79.016 L152.62,72.488 L159.148,77.724 L193.216,77.724 L195.596,71.128 L160.916,71.128 L156.088,67.32 L159.488,35.632 L147.724,35.632 L146.976,42.228 L152.008,42.228 L149.356,67.388 L143.032,79.016 L148.132,79.016 Z M225.992,79.084 L231.772,24.276 L219.124,24.276 L221.096,16.048 L214.024,16.048 L212.256,24.276 L207.428,24.276 L206.748,30.668 L210.896,30.668 L200.56,79.016 L205.932,79.016 L217.56,30.668 L224.564,30.668 L220.144,72.692 L213.412,72.692 L214.364,79.084 L225.992,79.084 Z M250.336,79.084 L256.524,19.992 L236.124,19.992 L229.868,79.084 L250.336,79.084 Z M244.42,72.556 L237.144,72.556 L241.972,26.588 L249.248,26.588 L244.42,72.556 Z M265.024,79.152 L290.184,33.456 L303.512,79.152 L310.04,79.152 L294.468,16.116 L285.152,16.116 L289.64,31.416 L282.364,31.416 L258.496,79.152 L265.024,79.152 Z M367.908,77.928 L368.588,71.4 L326.02,71.4 L330.916,24.344 L372.872,24.344 L373.552,17.816 L324.864,17.816 L318.54,77.928 L367.908,77.928 Z M334.656,68.816 L348.732,55.556 L359.952,68.816 L366.208,68.816 L354.24,50.932 L368.248,50.932 L368.928,44.472 L353.764,44.472 L354.58,36.924 L368.112,36.924 L368.792,30.464 L342.408,30.464 L344.312,26.588 L337.444,26.588 L331.596,42.364 L336.628,42.364 L339.28,36.924 L347.78,36.924 L346.964,44.472 L332.004,44.472 L331.324,50.932 L344.176,50.932 L328.4,68.816 L334.656,68.816 Z M374.98,71.196 L390.552,64.804 L391.232,58.276 L386.948,60.112 L389.6,34.272 L393.34,34.272 L394.02,27.812 L390.212,27.812 L391.504,16.048 L385.316,16.048 L384.092,27.812 L380.216,27.812 L379.536,34.272 L383.412,34.272 L380.352,62.628 L375.728,64.6 L374.98,71.196 Z M409.932,79.356 L414.556,69.156 L414.828,79.152 L424.212,79.152 L426.388,72.692 L420.948,72.692 L420.404,55.964 L430.128,34.408 L422.92,34.408 L419.996,41.752 L419.656,30.94 L430.4,30.94 L431.012,24.48 L428.904,24.48 L429.312,17.612 L423.668,17.612 L424.28,24.48 L419.452,24.48 L419.18,16.048 L412.924,16.048 L413.196,24.48 L396.196,24.48 L393.068,54.4 L387.22,79.152 L392.456,79.152 L399.188,55.624 L400.276,45.424 L405.24,45.424 L402.996,66.096 L398.304,66.096 L399.324,72.624 L407.688,72.624 L404.968,79.356 L409.932,79.356 Z M408.232,71.128 L411.564,39.032 L400.956,39.032 L401.772,30.94 L413.4,30.94 L414.148,56.372 L408.232,71.128 Z M451.616,29.58 L448.42,16.116 L440.26,16.116 L446.244,29.58 L451.616,29.58 Z M482.148,76.296 L484.46,69.632 L456.58,69.632 L461.204,25.636 L488.472,25.636 L489.22,18.972 L454.948,18.972 L448.896,76.296 L482.148,76.296 Z M448.556,45.56 L444.612,32.164 L436.588,32.164 L442.708,45.56 L448.556,45.56 Z M439.648,77.928 L448.148,50.796 L442.572,50.796 L432.1,77.928 L439.648,77.928 Z M496.428,80.784 L518.936,46.172 L534.1,80.784 L541.104,80.784 L524.376,37.4 L544.708,37.4 L545.388,30.464 L524.24,30.464 L525.6,17.748 L518.12,17.748 L516.828,30.464 L495.612,30.464 L494.864,37.4 L515.264,37.4 L489.492,80.784 L496.428,80.784 Z M557.084,79.22 L561.844,33.456 L558.852,33.456 L566.264,16.048 L559.124,16.048 L551.1,38.964 L555.112,38.964 L550.896,79.22 L557.084,79.22 Z M587.548,71.672 L588.296,65.144 L599.516,65.144 L599.992,59.84 L588.772,59.84 L589.384,54.4 L599.38,54.4 L599.992,49.164 L589.86,49.164 L590.336,44.608 L600.4,44.608 L601.42,34.68 L603.256,34.68 L603.868,29.24 L602.032,29.24 L602.984,19.788 L592.988,19.788 L593.396,16.048 L587.14,16.048 L586.8,19.788 L580.544,19.788 L580.068,24.956 L586.256,24.956 L585.848,29.24 L577.484,29.24 L576.94,34.68 L585.304,34.68 L584.76,39.508 L578.232,39.508 L577.688,44.608 L584.148,44.608 L583.672,49.164 L576.94,49.164 L576.328,54.4 L583.128,54.4 L582.584,59.84 L574.152,59.84 L573.54,65.144 L582.04,65.144 L581.292,71.672 L587.548,71.672 Z M562.456,79.22 L566.196,70.924 L567.896,79.22 L597.272,79.22 L599.584,73.1 L571.092,73.1 L569.528,63.444 L575.036,51.068 L575.784,44.132 L576.464,37.944 L571.092,37.944 L577.484,25.228 L578.096,19.04 L566.128,19.04 L565.516,25.16 L571.228,25.16 L562.184,44.132 L569.868,44.132 L569.12,51.068 L567.964,53.992 L567.148,48.688 L561.572,48.688 L564.496,62.968 L558.24,79.22 L562.456,79.22 Z M596.524,29.24 L592.036,29.24 L592.376,24.956 L596.932,24.956 L596.524,29.24 Z M595.436,39.508 L590.948,39.508 L591.424,34.68 L595.912,34.68 L595.436,39.508 Z M610.124,79.084 L618.828,48.96 L621.276,25.228 L661.94,25.228 L662.552,19.38 L642.9,19.38 L643.24,16.116 L636.032,16.116 L635.692,19.38 L615.36,19.38 L612.3,48.076 L605.296,79.084 L610.124,79.084 Z M638.412,79.084 L641.132,53.244 L656.704,53.244 L657.656,44.268 L660.58,44.268 L661.192,38.42 L658.268,38.42 L659.22,29.512 L643.648,29.512 L643.92,26.588 L637.392,26.588 L637.12,29.512 L623.792,29.512 L623.18,35.224 L636.508,35.224 L636.168,38.42 L621.14,38.42 L620.528,44.268 L635.556,44.268 L635.216,47.532 L621.616,47.532 L621.004,53.244 L634.604,53.244 L632.496,72.964 L628.62,72.964 L629.096,79.084 L638.412,79.084 Z M652.42,38.42 L642.696,38.42 L643.036,35.224 L652.76,35.224 L652.42,38.42 Z M651.4,47.532 L641.744,47.532 L642.084,44.268 L651.808,44.268 L651.4,47.532 Z M642.968,62.764 L656.228,60.928 L656.772,55.284 L643.58,57.12 L642.968,62.764 Z M630.048,63.376 L630.66,57.528 L619.916,55.624 L619.304,61.404 L630.048,63.376 Z M615.836,75.276 L631.544,69.768 L632.224,63.58 L616.448,69.088 L615.836,75.276 Z M657.316,75.276 L657.996,69.088 L641.608,63.58 L640.996,69.768 L657.316,75.276 Z M718.584,43.316 L719.332,36.584 L700.904,16.184 L690.432,16.184 L667.72,36.584 L666.972,43.316 L695.056,21.624 L718.584,43.316 Z M714.3,78.064 L714.912,71.264 L695.26,71.264 L697.096,54.128 L713.348,54.128 L714.096,47.396 L697.844,47.396 L699.204,33.388 L692.336,33.388 L688.392,71.264 L678.192,71.264 L680.98,44.676 L674.18,44.676 L671.392,71.264 L664.66,71.264 L663.98,78.064 L714.3,78.064 Z M772.644,77.656 L773.392,70.72 L758.84,70.72 L764.552,16.252 L757.684,16.252 L751.904,70.72 L743.268,70.72 L749.048,16.252 L742.112,16.252 L736.332,70.72 L721.78,70.72 L721.032,77.656 L772.644,77.656 Z M733.544,60.18 L733.408,26.044 L726.472,26.044 L728.512,60.18 L733.544,60.18 Z M768.904,60.18 L778.084,26.044 L771.08,26.044 L763.94,60.18 L768.904,60.18 Z M833.776,44.812 L834.524,37.944 L815.416,16.184 L806.508,16.184 L782.912,37.944 L782.164,44.812 L793.384,35.836 L792.704,42.16 L823.644,42.16 L824.324,35.768 L833.776,44.812 Z M823.916,35.36 L793.996,35.36 L810.316,22.372 L823.916,35.36 Z M824.052,77.996 L827.112,49.368 L787.808,49.368 L784.816,77.996 L824.052,77.996 Z M817.66,71.128 L792.636,71.128 L794.2,56.1 L819.292,56.1 L817.66,71.128 Z M848.6,79.22 L853.428,33.456 L849.96,33.456 L860.296,16.048 L852.408,16.048 L840.372,38.964 L845.948,38.964 L841.664,79.22 L848.6,79.22 Z M856.08,79.22 L871.788,54.74 L882.396,79.22 L887.904,79.22 L876.344,45.22 L879.404,16.048 L872.4,16.048 L869.34,45.22 L850.572,79.22 L856.08,79.22 Z M864.308,48.144 L864.308,26.86 L857.1,26.86 L859.276,48.144 L864.308,48.144 Z M886.068,48.076 L892.868,26.86 L885.66,26.86 L881.104,48.076 L886.068,48.076 Z M900.552,79.152 L923.672,44.744 L939.584,79.152 L945.84,79.152 L928.228,35.768 L930.336,16.116 L923.06,16.116 L920.952,35.768 L894.296,79.152 L900.552,79.152 Z M981.472,79.016 L983.852,57.256 L1005.952,57.256 L1006.7,50.388 L984.464,50.388 L987.32,24.412 L1007.244,24.412 L1007.856,17.68 L960.8,17.68 L960.052,24.412 L980.044,24.412 L977.256,50.388 L955.156,50.388 L954.408,57.256 L976.508,57.256 L974.332,79.016 L981.472,79.016 Z M970.32,45.764 L969.232,29.104 L961.412,29.104 L964.948,45.764 L970.32,45.764 Z M997.52,45.764 L1004.932,29.104 L997.112,29.104 L992.148,45.764 L997.52,45.764 Z M1064.024,41.412 L1058.04,22.916 L1050.288,22.916 L1054.64,34.612 L1026.42,34.612 L1037.504,16.184 L1029.48,16.184 L1015.336,41.412 L1064.024,41.412 Z M1057.836,77.996 L1060.964,48.348 L1017.036,48.348 L1013.976,77.996 L1057.836,77.996 Z M1051.58,71.264 L1021.66,71.264 L1023.36,55.08 L1053.348,55.08 L1051.58,71.264 Z" id="欢迎加入医城汇大健康企业合伙人平台"></path>
            </g>
        </g>
    </g>
</svg>