<?xml version="1.0" encoding="UTF-8"?>
<svg width="127px" height="39px" viewBox="0 0 107 39" version="1.1" xmlns="http://www.w3.org/2000/svg" xmlns:xlink="http://www.w3.org/1999/xlink">
    <title>logo</title>
    <defs>
        <polygon id="path-1" points="0 0.00168262911 38.4184188 0.00168262911 38.4184188 38.4199892 0 38.4199892"></polygon>
    </defs>
    <g id="页面-1" stroke="none" stroke-width="1" fill="none" fill-rule="evenodd">
        <g id="医城汇网站" transform="translate(-359.000000, -25.000000)">
            <g id="logo" transform="translate(359.000000, 25.000000)">
                <g id="编组-21">
                    <path d="M23.7291228,23.8163531 C22.8938376,24.9306742 23.9217838,27.1109408 23.1107566,28.6829371 C23.1944674,28.7022873 23.2794401,28.7223387 23.368339,28.7317333 C23.80414,28.7404269 24.2283027,28.7464563 24.6453143,28.7805296 L28.7803753,28.7805296 L28.7803753,24.6468707 C28.745601,24.2292983 28.7376085,23.8063975 28.730878,23.3705966 C28.716155,23.2923543 28.6932993,23.2201415 28.6732479,23.1458254 C27.1434577,24.1101121 24.8406395,22.7053972 23.7291228,23.8163531" id="Fill-1" fill-opacity="0.604790961" fill="#FFFFFF"></path>
                    <path d="M14.7241545,14.2291671 C15.4161357,12.9837411 14.529951,11.2130544 15.2955473,9.75477584 C15.215342,9.73206034 15.1363986,9.70597959 15.0521269,9.69125659 C14.6143629,9.68242279 14.19006,9.67583249 13.7737495,9.64161903 L9.63938955,9.64161903 L9.63938955,13.7761192 C9.67416388,14.1924297 9.6808944,14.6151902 9.68888689,15.0543564 C9.70641427,15.1359639 9.73445809,15.2108409 9.76123994,15.2897843 C11.447655,14.3670024 13.7504731,15.7589574 14.7241545,14.2291671" id="Fill-3" fill-opacity="0.604790961" fill="#FFFFFF"></path>
                    <path d="M24.0209047,14.52158 C25.1277942,15.3513966 27.1594286,14.4680163 28.6666436,15.2932056 C28.68992,15.2142623 28.7147388,15.1365809 28.730864,15.0542723 C28.7375945,14.6152463 28.745587,14.1930466 28.7803613,13.7760351 L28.7803613,9.64167512 L24.6453003,9.64167512 C24.2282887,9.67574836 23.8041259,9.68247887 23.368325,9.69117246 C23.2833522,9.70715743 23.2138036,9.74543725 23.1341591,9.77011581 C23.9057848,11.2658329 22.9166793,13.4159524 24.0209047,14.52158" id="Fill-5" fill-opacity="0.604790961" fill="#FFFFFF"></path>
                    <path d="M14.7241545,23.8163531 C13.7504731,22.5648977 11.447655,23.9703136 9.76123994,23.1231099 C9.73586028,23.2040163 9.70641427,23.2829596 9.68888689,23.3705966 C9.6808944,23.8063975 9.67416388,24.2292983 9.63938955,24.6468707 L9.63938955,28.7805296 L13.7737495,28.7805296 C14.19006,28.7464563 14.6143629,28.7404269 15.0521269,28.7317333 C15.1349964,28.7136451 15.2146409,28.6861621 15.2942853,28.6602216 C14.4135692,26.9603455 15.6971348,24.7886322 14.7241545,23.8163531" id="Fill-7" fill-opacity="0.604790961" fill="#FFFFFF"></path>
                    <path d="M19.5598903,12.5166012 C20.9303917,12.1265117 21.5648831,10.2620184 23.1342152,9.77012983 C23.0946734,9.69188757 23.0526077,9.6135051 23.000306,9.53862811 C22.6971523,9.22537865 22.4026922,8.920963 22.133752,8.60042216 C20.4285476,6.89521778 19.2106046,5.67797584 19.2106046,5.67797584 C19.2106046,5.67797584 17.9912593,6.89661997 16.286055,8.60042216 C16.0171147,8.920963 15.7212525,9.22467756 15.4180988,9.53862811 C15.3712656,9.61013984 15.3345282,9.6824929 15.2955473,9.75484595 C17.1453176,10.2921655 17.7885025,12.9107571 19.5598903,12.5166012" id="Fill-9" fill-opacity="0.604790961" fill="#FFFFFF"></path>
                    <path d="M29.8189782,16.2876815 C29.5018026,16.0179 29.1965456,15.722879 28.8813331,15.4197253 C28.8124855,15.372191 28.7388705,15.3319482 28.6666577,15.2932477 C28.1646733,16.9067488 25.9274777,17.7284327 25.9274777,19.2965028 C26.1249062,20.6716314 28.1994476,21.4861641 28.6732479,23.1457973 C28.7429368,23.1016283 28.8137475,23.0594223 28.8813331,23.0038956 C29.1965456,22.6994799 29.5018026,22.4043187 29.8189782,22.1332752 C31.5241825,20.4294731 32.7421256,19.2122311 32.7421256,19.2122311 C32.7421256,19.2122311 31.5248836,17.9934468 29.8189782,16.2876815" id="Fill-11" fill-opacity="0.604790961" fill="#FFFFFF"></path>
                    <path d="M12.782078,19.2964607 C12.9788054,17.7210992 10.349417,17.0853459 9.76119787,15.2898404 C9.68491869,15.3293822 9.60934059,15.3682228 9.53768864,15.4182811 C9.22317721,15.7228369 8.91932244,16.0179981 8.5987816,16.2890416 C6.89427831,17.9934047 5.67633527,19.212189 5.67633527,19.212189 C5.67633527,19.212189 6.89427831,20.429431 8.5987816,22.1332332 C8.91932244,22.4042767 9.22317721,22.6994379 9.53768864,23.0039937 C9.60934059,23.0501258 9.68491869,23.0863023 9.76119787,23.1230397 C10.3380592,21.2994905 12.782078,20.6717296 12.782078,19.2964607" id="Fill-13" fill-opacity="0.604790961" fill="#FFFFFF"></path>
                    <path d="M19.1489923,25.6626879 C17.7770887,25.8588545 16.9646593,28.1093709 15.2943695,28.6601515 C15.3330699,28.7364307 15.3705084,28.8114479 15.4180427,28.8850629 C15.7211964,29.1981721 16.0170587,29.5020269 16.2859989,29.8206047 C17.9912033,31.527071 19.2085854,32.7436119 19.2085854,32.7436119 C19.2085854,32.7436119 20.4284915,31.527071 22.1336959,29.8206047 C22.4026361,29.5020269 22.6970962,29.1981721 23.0003901,28.8843618 C23.0424558,28.8180382 23.0772302,28.7504526 23.1107425,28.682867 C21.3533767,28.2773534 20.7176233,25.6626879 19.1489923,25.6626879" id="Fill-15" fill-opacity="0.604790961" fill="#FFFFFF"></path>
                    <g id="编组">
                        <mask id="mask-2" fill="white">
                            <use xlink:href="#path-1"></use>
                        </mask>
                        <g id="Clip-18"></g>
                        <path d="M19.2085433,35.059218 C10.4571894,35.059218 3.36224351,27.96287 3.36224351,19.2108149 C3.36224351,10.4587598 10.4571894,3.36367374 19.2085433,3.36367374 C27.9612995,3.36367374 35.0562454,10.4587598 35.0562454,19.2108149 C35.0562454,27.96287 27.9612995,35.059218 19.2085433,35.059218 M19.2085433,0.00164056338 C8.6001277,0.00164056338 -7.01095462e-05,8.60239925 -7.01095462e-05,19.2108149 C-7.01095462e-05,29.8197914 8.6001277,38.4199892 19.2085433,38.4199892 C29.818221,38.4199892 38.4184188,29.8197914 38.4184188,19.2108149 C38.4184188,8.60239925 29.818221,0.00164056338 19.2085433,0.00164056338" id="Fill-17" fill="#FFFFFF" mask="url(#mask-2)"></path>
                    </g>
                    <path d="M25.6069088,21.1247775 L21.2864781,21.1247775 L21.2864781,25.4466103 L17.4437739,25.4466103 L17.4437739,21.1247775 L13.1213802,21.1247775 L13.1213802,17.2820732 L17.4437739,17.2820732 L17.4437739,12.9602404 L21.2864781,12.9602404 L21.2864781,17.2820732 L25.6069088,17.2820732 L25.6069088,21.1247775 Z M25.9274496,19.2964607 C25.9274496,17.7285308 28.1646453,16.9067067 28.6666296,15.2932056 C27.1595548,14.4680163 25.1277802,15.3513966 24.0208906,14.52158 C22.9166653,13.4159524 23.9057708,11.2658329 23.1341451,9.77011581 C21.564813,10.2620044 20.9304618,12.1264977 19.5599604,12.5165872 C17.7884324,12.910743 17.1453877,10.2921515 15.2956174,9.75483192 C14.5300212,11.2129703 15.4160656,12.9837972 14.7240844,14.2292232 C13.750403,15.7590135 11.4477251,14.3669183 9.76116983,15.2898404 C10.3495291,17.0853459 12.9787773,17.7210992 12.78205,19.2964607 C12.78205,20.6717296 10.3380312,21.2994905 9.76116983,23.1230397 C11.4477251,23.9702435 13.750403,22.5648275 14.7240844,23.8162829 C15.6972049,24.7887023 14.4136393,26.9602754 15.2943554,28.6601515 C16.9646453,28.1093709 17.7770747,25.8588545 19.1489783,25.6626879 C20.7176093,25.6626879 21.3533626,28.2773534 23.1107285,28.682867 C23.9217557,27.1108707 22.8939498,24.9306041 23.7290947,23.8162829 C24.8406115,22.7054673 27.1434296,24.1101822 28.6732199,23.1457552 C28.1994196,21.4861221 26.1248781,20.6717296 25.9274496,19.2964607 L25.9274496,19.2964607 Z" id="Fill-43" fill="#FFFFFF"></path>
                </g>
                <text id="医城汇" font-family="Fontquan-XinYiGuanHeiTi-Regular, Fontquan-XinYiGuanHeiTi" font-size="24" font-weight="normal" fill="#FFFFFF">
                    <tspan x="45" y="26">医城汇</tspan>
                </text>
            </g>
        </g>
    </g>
</svg>
